<!DOCTYPE svg PUBLIC "-//W3C//DTD SVG 1.1//EN" "http://www.w3.org/Graphics/SVG/1.1/DTD/svg11.dtd">
<!-- Uploaded to: SVG Repo, www.svgrepo.com, Transformed by: SVG Repo Mixer Tools -->
<svg fill="#000000" height="64px" width="64px" version="1.1" id="Capa_1" xmlns="http://www.w3.org/2000/svg" xmlns:xlink="http://www.w3.org/1999/xlink" viewBox="0 0 427.847 427.847" xml:space="preserve">
<g id="SVGRepo_bgCarrier" stroke-width="0"/>
<g id="SVGRepo_tracerCarrier" stroke-linecap="round" stroke-linejoin="round"/>
<g id="SVGRepo_iconCarrier"> <g> <path d="M162.825,279.521c3.819,3.82,8.898,5.924,14.301,5.924c4.158,0,8.125-1.247,11.473-3.563 c3.349,2.316,7.315,3.563,11.474,3.563c5.402,0,10.481-2.104,14.301-5.924c3.82-3.82,5.925-8.899,5.925-14.302 s-2.104-10.481-5.925-14.302l-10.511-10.511c-4.077-4.077-9.498-6.322-15.264-6.322s-11.187,2.246-15.263,6.322l-10.511,10.511 c-3.82,3.82-5.925,8.899-5.925,14.302S159.005,275.701,162.825,279.521z M168.481,256.575l10.511-10.511 c2.566-2.566,5.978-3.979,9.606-3.979s7.041,1.414,9.607,3.979l10.511,10.511c2.309,2.309,3.581,5.379,3.581,8.645 s-1.272,6.335-3.581,8.645c-2.31,2.309-5.379,3.581-8.645,3.581s-6.336-1.272-8.646-3.581c-0.75-0.75-1.768-1.171-2.828-1.171 s-2.078,0.421-2.828,1.172c-2.31,2.309-5.379,3.581-8.645,3.581s-6.335-1.272-8.645-3.581c-2.309-2.309-3.581-5.379-3.581-8.645 S166.173,258.884,168.481,256.575z"/> <path d="M149.008,261.16c1.672-3.482,2.678-7.184,2.989-11.004c0.475-5.81,1.859-10.899,4.116-15.126 c0.743-1.391,1.39-2.856,1.921-4.354c5.072-14.284-1.124-30.578-14.413-37.9c-7.66-4.22-16.448-5.081-24.747-2.424 c-8.184,2.62-15.01,8.563-18.727,16.307c-1.672,3.482-2.678,7.184-2.989,11.004c-0.475,5.811-1.859,10.9-4.116,15.127 c-0.743,1.392-1.39,2.856-1.921,4.354c-5.072,14.284,1.124,30.578,14.413,37.9c4.742,2.613,9.916,3.938,15.141,3.938 c3.213,0,6.445-0.501,9.606-1.514C138.465,274.848,145.291,268.904,149.008,261.16z M109.395,268.036 c-9.896-5.453-14.512-17.584-10.735-28.218c0.398-1.123,0.883-2.22,1.438-3.262c2.775-5.198,4.469-11.336,5.032-18.244 c0.232-2.841,0.981-5.598,2.229-8.193c2.81-5.854,7.766-10.169,13.953-12.15c2.354-0.754,4.76-1.127,7.154-1.127 c3.895,0,7.755,0.989,11.293,2.938c9.896,5.453,14.512,17.583,10.735,28.218c-0.399,1.124-0.883,2.222-1.438,3.262c0,0,0,0,0,0 c-2.775,5.198-4.469,11.336-5.032,18.243c-0.232,2.841-0.981,5.598-2.229,8.193c-2.81,5.854-7.766,10.169-13.954,12.15 C121.66,271.828,115.107,271.184,109.395,268.036z"/> <path d="M221.085,235.029c2.257,4.227,3.642,9.316,4.116,15.127c0.312,3.82,1.317,7.522,2.988,11.004 c3.718,7.744,10.544,13.688,18.728,16.308c3.161,1.012,6.393,1.514,9.606,1.514c5.224,0,10.399-1.325,15.141-3.938 c13.289-7.323,19.485-23.617,14.413-37.899c-0.531-1.499-1.178-2.963-1.921-4.355c-2.257-4.226-3.642-9.315-4.116-15.128 c-0.313-3.823-1.318-7.524-2.988-11.003c-3.718-7.744-10.544-13.688-18.728-16.307c-8.298-2.657-17.086-1.796-24.747,2.424 c-13.289,7.323-19.485,23.616-14.413,37.902C219.697,232.176,220.344,233.641,221.085,235.029z M237.438,199.781 c3.538-1.95,7.398-2.938,11.293-2.938c2.394,0,4.801,0.374,7.154,1.127c6.188,1.98,11.144,6.296,13.954,12.15 c1.245,2.593,1.994,5.35,2.228,8.193c0.563,6.909,2.257,13.047,5.032,18.244c0.556,1.041,1.04,2.138,1.438,3.262 c3.776,10.633-0.839,22.764-10.735,28.217c-5.711,3.148-12.264,3.792-18.446,1.812c-6.188-1.981-11.145-6.296-13.955-12.151 c-1.246-2.595-1.995-5.352-2.228-8.193c-0.563-6.907-2.257-13.045-5.032-18.243c0,0,0,0,0,0c-0.555-1.039-1.039-2.137-1.439-3.263 C222.927,217.365,227.542,205.234,237.438,199.781z"/> <path d="M371.708,362.032c-18.597-10.054-30.028-8.812-33.104-3.119c-0.005,0.009-11.734,21.707-11.734,21.707l-28.296-15.297 c-1.942-1.051-4.37-0.326-5.421,1.616l-1.12,2.073l-22.613-12.226v-40.722h27.26c23.881,0,43.31-19.429,43.31-43.31 c0-7.195-1.803-14.318-5.212-20.594c-2.837-5.242-6.761-9.875-11.443-13.537c3.453-12.746,5.079-25.913,4.835-39.182 c-0.509-27.975-9.346-54.866-25.556-77.766c-15.165-21.423-35.778-38.019-59.758-48.199c0.426-3.016,0.098-5.812-1.013-8.357 c0,0-15.639-53.722-15.649-53.74C221.312,1.282,205.806-2.19,181.31,1.342c-22.783,3.286-50.825,12.309-78.963,25.407 C74.211,39.848,49.254,55.498,32.072,70.815c-18.595,16.579-25.9,30.76-21.127,41.012c0.587,1.26,30.958,46.361,30.958,46.361 c2.026,4.096,5.933,7.01,11.565,8.731c-2.954,11.421-4.46,23.204-4.46,35.093c0,12.392,1.636,24.692,4.865,36.607 c-10.479,8.176-16.655,20.73-16.655,34.133c0,11.561,4.503,22.438,12.682,30.628c8.179,8.178,19.052,12.682,30.618,12.682h27.26 v47.9c0,19.817,16.123,35.94,35.94,35.94h89.76c13.157,0,25.01-7.078,31.317-18.337l15.825,8.554l-0.001,0.002 c-0.505,0.933-0.618,2.029-0.314,3.045c0.303,1.017,0.997,1.871,1.931,2.375l52.131,28.183c5.055,2.733,10.589,4.121,16.178,4.121 c3.274,0,6.568-0.477,9.794-1.438c8.732-2.604,15.928-8.453,20.261-16.468l11.85-21.917c1.432-2.647,1.827-7.213-4.417-13.93 C384.13,369.897,378.333,365.614,371.708,362.032z M18.197,108.451c-2.997-6.437,4.181-18.274,19.199-31.664 c16.614-14.813,40.88-30.007,68.328-42.785s54.697-21.564,76.728-24.742c5.838-0.842,11.14-1.254,15.793-1.254 c11.223,0,18.679,2.397,20.797,6.948c2.31,4.964-1.433,13.139-10.151,22.76c-19.41-16.065-60.266-14.838-99.784,3.558 c-39.515,18.396-66.758,48.87-66.96,74.065C29.173,115.814,20.507,113.415,18.197,108.451z M91.541,105.233 c-13.152,4.262-25.621,7.305-36.754,8.911c-1.589,0.229-3.134,0.423-4.641,0.589c0.546-18.961,20.222-42.467,49.049-59.261 c-1.535,2.778-3.105,5.889-4.548,9.256C88.069,80.068,87.031,93.951,91.541,105.233z M112.717,49.019 c8.307,0.629,39.628,4.305,49.794,24.133c-9.643,5.681-20.06,11.16-30.997,16.25c-10.937,5.091-21.835,9.536-32.391,13.258 C90.524,82.153,107.859,55.787,112.717,49.019z M126.417,42.805c31.387-11.225,62.012-11.141,76.863,0.64 c-1.097,1.046-2.239,2.103-3.437,3.171c-8.394,7.483-18.745,15.063-30.468,22.381C160.564,52.392,140.578,45.585,126.417,42.805z M49.672,155.596c-5.565-8.638-22.5-33.846-22.054-33.149c3.367,0.63,7.166,0.958,11.412,0.957c5.035,0,10.679-0.446,16.898-1.343 c22.783-3.286,50.825-12.31,78.963-25.408c28.136-13.099,53.094-28.748,70.275-44.066c8.64-7.703,14.839-14.888,18.525-21.402 c0,0,10.652,36.772,10.756,36.993c2.675,5.747-4.109,16.848-17.707,28.971c-15.364,13.698-37.808,27.751-63.198,39.571 c-25.39,11.82-50.593,19.948-70.966,22.886C65.741,162.035,53.007,160.773,49.672,155.596z M80.518,308.064 c-9.43,0-18.294-3.672-24.96-10.336c-6.668-6.678-10.34-15.547-10.34-24.974c0-10.841,4.955-21,13.376-27.669 c0.686-0.544,4.127-2.547,5-3.014c12.011-6.432,19.583-18.872,19.583-32.742v-35.191c0-2.209-1.791-4-4-4s-4,1.791-4,4v35.191 c0,10.412-5.43,19.805-14.148,25.024c-2.667-10.552-4.021-21.407-4.021-32.34c0-11.381,1.468-22.655,4.336-33.573 c2.091,0.214,4.32,0.329,6.704,0.329c4.674,0,9.905-0.413,15.67-1.244c21.125-3.047,47.121-11.411,73.2-23.551 c26.078-12.141,49.214-26.648,65.146-40.852c8.963-7.991,15.1-15.392,18.322-22.009c22.33,9.623,41.531,25.173,55.697,45.184 c15.278,21.583,23.607,46.927,24.087,73.29c0.217,11.84-1.149,23.591-4.054,35.001c-8.953-5.168-14.554-14.687-14.554-25.259 v-37.596c0-2.209-1.791-4-4-4s-4,1.791-4,4v37.596c0,14.523,8.288,27.497,21.293,33.631c0.65,0.307,3.321,1.791,3.912,2.266 c3.659,2.938,6.735,6.604,8.978,10.747c2.776,5.112,4.244,10.915,4.244,16.781c0,19.47-15.84,35.31-35.31,35.31h-32.28 c-7.951,0-14.935,4.204-18.857,10.504c-2.472-2.187-5.617-3.394-8.963-3.394c-3.742,0-7.136,1.52-9.598,3.975 c-2.555-2.56-5.961-3.971-9.595-3.971c-3.737,0-7.129,1.52-9.591,3.974c-2.556-2.562-5.964-3.974-9.599-3.974 c-3.743,0-7.136,1.519-9.598,3.972c-2.461-2.454-5.853-3.973-9.594-3.973c-3.742,0-7.135,1.52-9.596,3.974 c-2.461-2.454-5.853-3.974-9.595-3.974c-3.742,0-7.135,1.52-9.596,3.974c-2.461-2.454-5.853-3.974-9.595-3.974 c-3.435,0-6.567,1.29-8.962,3.398c-3.921-6.303-10.908-10.511-18.862-10.511H80.518z M261.419,316.384v36.076l-11.25-6.083 l0.03-16.115C250.199,323.456,255.016,317.757,261.419,316.384z M242.169,328.773v8.76h-11.19v-8.76c0-3.088,2.513-5.6,5.601-5.6 c1.498,0,2.897,0.579,3.951,1.639C241.587,325.869,242.169,327.275,242.169,328.773z M222.975,328.777v8.756h-11.19v-8.758 c0.006-3.087,2.519-5.598,5.601-5.598c1.498,0,2.898,0.579,3.951,1.638C222.393,325.872,222.975,327.279,222.975,328.777z M220.903,357.84c-0.977,0.796-2.208,1.277-3.517,1.277c-3.088,0-5.601-2.512-5.601-5.6v-0.606L220.903,357.84z M192.598,337.533 v-8.762c0-0.01-0.002-0.021-0.002-0.031c0.015-3.07,2.519-5.563,5.598-5.563c1.498,0,2.898,0.579,3.96,1.647 c1.051,1.044,1.63,2.445,1.63,3.943v8.766H192.598z M203.785,348.587v4.931c0,3.083-2.508,5.59-5.59,5.59 c-3.078,0-5.582-2.492-5.598-5.562c0-0.01,0.001-0.019,0.001-0.029v-7.984h5.538L203.785,348.587z M184.595,345.533v7.984 c0,0.01,0.001,0.019,0.001,0.029c-0.016,3.072-2.518,5.566-5.593,5.566c-3.086,0-5.596-2.51-5.596-5.595v-7.984H184.595z M173.408,337.533v-8.762c0-3.085,2.51-5.595,5.596-5.595c3.074,0,5.576,2.493,5.593,5.564c0,0.009-0.001,0.018-0.001,0.027v8.766 H173.408z M154.218,337.533v-8.762c0-3.085,2.51-5.595,5.596-5.595c3.085,0,5.595,2.51,5.595,5.595v8.762H154.218z M165.408,345.533v7.984c0,3.085-2.51,5.595-5.595,5.595c-3.086,0-5.596-2.51-5.596-5.595v-7.984H165.408z M135.027,337.533v-8.762 c0-3.085,2.51-5.595,5.596-5.595c3.085,0,5.595,2.51,5.595,5.595v8.762H135.027z M146.218,345.533v7.984 c0,3.085-2.51,5.595-5.595,5.595c-3.086,0-5.596-2.51-5.596-5.595v-7.984H146.218z M233.478,391.903h-89.76 c-15.406,0-27.94-12.534-27.94-27.94v-47.58c6.403,1.373,11.221,7.072,11.221,13.879l0.028,23.254 c0,7.497,6.099,13.595,13.596,13.595c3.741,0,7.134-1.52,9.595-3.974c2.461,2.454,5.854,3.974,9.596,3.974 c3.741,0,7.134-1.52,9.595-3.974c2.461,2.454,5.854,3.974,9.596,3.974s7.135-1.52,9.596-3.975c2.461,2.452,5.854,3.97,9.595,3.97 c3.738,0,7.128-1.518,9.588-3.969c2.462,2.457,5.858,3.979,9.603,3.979c3.721,0,7.137-1.482,9.618-3.973 c2.504,2.477,5.93,3.969,9.575,3.969c0.445,0,0.896-0.027,1.347-0.071l19.836,10.723 C252.842,386.45,243.663,391.903,233.478,391.903z M284.424,383.084l-69.465-37.551h16.827l56.441,30.516L284.424,383.084z M373.561,406.136c-3.317,6.136-8.825,10.613-15.51,12.606c-6.685,1.993-13.744,1.264-19.881-2.053l-48.612-26.28l8.729-16.146 l28.296,15.297c1.945,1.053,4.371,0.326,5.421-1.616l9.254-17.119c3.325,4.388,9.161,9.255,18.085,14.079 c8.925,4.825,16.193,7.042,21.686,7.42L373.561,406.136z M363.148,377.867c-11.716-6.333-16.893-12.95-17.381-15.081 c2.05-0.759,10.423-0.049,22.136,6.283c11.716,6.334,16.894,12.95,17.381,15.081C383.238,384.907,374.864,384.2,363.148,377.867z"/> <path d="M418.323,312.741c0-12.866-10.467-23.333-23.333-23.333c-0.048,0-0.095,0-0.143,0c-1.153-9.38-9.171-16.667-18.857-16.667 c-10.477,0-19,8.523-19,19c0,0.515,0.022,1.032,0.066,1.549c-7.583,3.856-12.477,11.66-12.477,20.367 c0,6.617,2.879,12.878,7.81,17.197c-0.044,0.521-0.066,1.039-0.066,1.553c0,10.477,8.523,19,19,19 c4.588,0,8.914-1.623,12.319-4.543c2.898,1.71,6.208,2.626,9.616,2.626c10.477,0,19-8.523,19-19c0-0.65-0.036-1.309-0.107-1.971 C416.097,324.229,418.323,318.593,418.323,312.741z M405.2,324.152c-1.084,0.971-1.556,2.453-1.231,3.871 c0.192,0.842,0.29,1.672,0.29,2.466c0,6.065-4.935,11-11,11c-2.729,0-5.353-1.021-7.389-2.874 c-0.826-0.751-1.934-1.124-3.039-1.026c-1.112,0.097-2.133,0.653-2.816,1.536c-2.106,2.721-5.274,4.282-8.691,4.282 c-6.065,0-11-4.935-11-11c0-0.778,0.091-1.583,0.271-2.393c0.352-1.584-0.288-3.223-1.62-4.15 c-4.004-2.787-6.395-7.35-6.395-12.207c0-6.43,4.106-12.103,10.219-14.116c2.027-0.668,3.173-2.811,2.603-4.868 c-0.272-0.985-0.411-1.971-0.411-2.933c0-6.065,4.935-11,11-11s11,4.935,11,11c0,0.451-0.041,0.949-0.129,1.569 c-0.184,1.298,0.281,2.604,1.242,3.494c0.962,0.891,2.3,1.254,3.579,0.972c1.112-0.245,2.226-0.369,3.308-0.369 c8.455,0,15.333,6.878,15.333,15.333C410.323,317.077,408.456,321.237,405.2,324.152z"/> </g> </g>
</svg>